<?xml version="1.0" encoding="UTF-8" standalone="no"?>
<!DOCTYPE svg PUBLIC "-//W3C//DTD SVG 1.1//EN" "http://www.w3.org/Graphics/SVG/1.1/DTD/svg11.dtd">
<svg width="100%" height="100%" viewBox="0 0 504 194" version="1.1" xmlns="http://www.w3.org/2000/svg" xmlns:xlink="http://www.w3.org/1999/xlink" xml:space="preserve" xmlns:serif="http://www.serif.com/" style="fill-rule:evenodd;clip-rule:evenodd;stroke-linejoin:round;stroke-miterlimit:2;">
    <g transform="matrix(1,0,0,1,-5924.36217,-31831.016579)">
        <g transform="matrix(0.772727,0,0,0.925666,940.540249,6645.384012)">
            <g id="sweettech_negative" transform="matrix(0.520215,0,0,0.659575,6142.063217,11335.498851)">
                <g id="sweet_commercial" transform="matrix(-2.416731,-0,0,-1.591176,29507.528897,35553.288089)">
                    <g transform="matrix(0.326873,0,0,0.326873,8106.121436,4753.894496)">
                        <g transform="matrix(0.662425,0,0,0.662425,11202.273825,6907.765455)">
                            <circle cx="435.5" cy="44.85" r="5.06" style="fill:white;"/>
                        </g>
                        <g transform="matrix(0.662425,0,0,0.662425,11202.273825,6907.765455)">
                            <circle cx="570.52" cy="54" r="6.61" style="fill:white;"/>
                        </g>
                        <g transform="matrix(0.662425,0,0,0.662425,11202.273825,6907.765455)">
                            <circle cx="307.38" cy="81.94" r="1.87" style="fill:white;"/>
                        </g>
                        <g transform="matrix(0.662425,0,0,0.662425,11202.273825,6907.765455)">
                            <circle cx="697.12" cy="112.02" r="8.76" style="fill:white;"/>
                        </g>
                        <g transform="matrix(0.662425,0,0,0.662425,11202.273825,6907.765455)">
                            <circle cx="407.31" cy="152.81" r="9.18" style="fill:white;"/>
                        </g>
                        <g transform="matrix(0.662425,0,0,0.662425,11202.273825,6907.765455)">
                            <circle cx="511.42" cy="162.32" r="12.05" style="fill:white;"/>
                        </g>
                        <g transform="matrix(0.662425,0,0,0.662425,11202.273825,6907.765455)">
                            <circle cx="193.31" cy="155.88" r="2.5" style="fill:white;"/>
                        </g>
                        <g transform="matrix(0.662425,0,0,0.662425,11202.273825,6907.765455)">
                            <circle cx="308.14" cy="179.08" r="6.61" style="fill:white;"/>
                        </g>
                        <g transform="matrix(0.662425,0,0,0.662425,11202.273825,6907.765455)">
                            <circle cx="607.76" cy="206.64" r="13.44" style="fill:white;"/>
                        </g>
                        <g transform="matrix(0.662425,0,0,0.662425,11202.273825,6907.765455)">
                            <circle cx="799.26" cy="207.83" r="10.79" style="fill:white;"/>
                        </g>
                        <g transform="matrix(0.662425,0,0,0.662425,11202.273825,6907.765455)">
                            <circle cx="222.13" cy="236.69" r="5.54" style="fill:white;"/>
                        </g>
                        <g transform="matrix(0.662425,0,0,0.662425,11202.273825,6907.765455)">
                            <circle cx="392.45" cy="253.81" r="12.76" style="fill:white;"/>
                        </g>
                        <g transform="matrix(0.662425,0,0,0.662425,11202.273825,6907.765455)">
                            <circle cx="466.55" cy="263.06" r="13.57" style="fill:white;"/>
                        </g>
                        <g transform="matrix(0.662425,0,0,0.662425,11202.273825,6907.765455)">
                            <circle cx="107.28" cy="261.65" r="1.93" style="fill:white;"/>
                        </g>
                        <g transform="matrix(0.662425,0,0,0.662425,11202.273825,6907.765455)">
                            <circle cx="317.83" cy="270.14" r="10.33" style="fill:white;"/>
                        </g>
                        <g transform="matrix(0.662425,0,0,0.662425,11202.273825,6907.765455)">
                            <circle cx="684.37" cy="280.53" r="14.66" style="fill:white;"/>
                        </g>
                        <g transform="matrix(0.662425,0,0,0.662425,11202.273825,6907.765455)">
                            <circle cx="532.81" cy="296.54" r="14.64" style="fill:white;"/>
                        </g>
                        <g transform="matrix(0.662425,0,0,0.662425,11202.273825,6907.765455)">
                            <circle cx="251.37" cy="307.75" r="9.04" style="fill:white;"/>
                        </g>
                        <g transform="matrix(0.662425,0,0,0.662425,11202.273825,6907.765455)">
                            <circle cx="864.68" cy="319.55" r="11.82" style="fill:white;"/>
                        </g>
                        <g transform="matrix(0.662425,0,0,0.662425,11202.273825,6907.765455)">
                            <circle cx="155.97" cy="317.51" r="4.92" style="fill:white;"/>
                        </g>
                        <g transform="matrix(0.662425,0,0,0.662425,11202.273825,6907.765455)">
                            <circle cx="583.43" cy="344.95" r="15.49" style="fill:white;"/>
                        </g>
                        <g transform="matrix(0.662425,0,0,0.662425,11202.273825,6907.765455)">
                            <circle cx="733.58" cy="366.27" r="15.51" style="fill:white;"/>
                        </g>
                        <g transform="matrix(0.662425,0,0,0.662425,11202.273825,6907.765455)">
                            <circle cx="201.87" cy="360.31" r="8.32" style="fill:white;"/>
                        </g>
                        <g transform="matrix(0.662425,0,0,0.662425,11202.273825,6907.765455)">
                            <circle cx="54.85" cy="388.35" r="1.67" style="fill:white;"/>
                        </g>
                        <g transform="matrix(0.662425,0,0,0.662425,11202.273825,6907.765455)">
                            <circle cx="619.16" cy="407.16" r="15.27" style="fill:white;"/>
                        </g>
                        <g transform="matrix(0.662425,0,0,0.662425,11202.273825,6907.765455)">
                            <circle cx="116.24" cy="410.85" r="4.52" style="fill:white;"/>
                        </g>
                        <g transform="matrix(0.662425,0,0,0.662425,11202.273825,6907.765455)">
                            <circle cx="169.68" cy="429.92" r="7.74" style="fill:white;"/>
                        </g>
                        <g transform="matrix(0.662425,0,0,0.662425,11202.273825,6907.765455)">
                            <circle cx="897.63" cy="443.13" r="12.33" style="fill:white;"/>
                        </g>
                        <g transform="matrix(0.662425,0,0,0.662425,11202.273825,6907.765455)">
                            <circle cx="758.13" cy="460.01" r="16.27" style="fill:white;"/>
                        </g>
                        <g transform="matrix(0.662425,0,0,0.662425,11202.273825,6907.765455)">
                            <circle cx="638.24" cy="474.77" r="15.69" style="fill:white;"/>
                        </g>
                        <g transform="matrix(0.662425,0,0,0.662425,11202.273825,6907.765455)">
                            <circle cx="155.9" cy="507.12" r="7.23" style="fill:white;"/>
                        </g>
                        <g transform="matrix(0.662425,0,0,0.662425,11202.273825,6907.765455)">
                            <circle cx="101.4" cy="507.27" r="3.89" style="fill:white;"/>
                        </g>
                        <g transform="matrix(0.662425,0,0,0.662425,11202.273825,6907.765455)">
                            <circle cx="40.29" cy="507.77" r="1.67" style="fill:white;"/>
                        </g>
                        <g transform="matrix(0.662425,0,0,0.662425,11202.273825,6907.765455)">
                            <circle cx="638.51" cy="543.02" r="15.61" style="fill:white;"/>
                        </g>
                        <g transform="matrix(0.662425,0,0,0.662425,11202.273825,6907.765455)">
                            <circle cx="759.33" cy="555.28" r="15.91" style="fill:white;"/>
                        </g>
                        <g transform="matrix(0.662425,0,0,0.662425,11202.273825,6907.765455)">
                            <circle cx="897.9" cy="569.18" r="12.77" style="fill:white;"/>
                        </g>
                        <g transform="matrix(0.662425,0,0,0.662425,11202.273825,6907.765455)">
                            <circle cx="165.97" cy="582.79" r="7.76" style="fill:white;"/>
                        </g>
                        <g transform="matrix(0.662425,0,0,0.662425,11202.273825,6907.765455)">
                            <circle cx="621.14" cy="608" r="15.51" style="fill:white;"/>
                        </g>
                        <g transform="matrix(0.662425,0,0,0.662425,11202.273825,6907.765455)">
                            <circle cx="114.45" cy="606.55" r="4.03" style="fill:white;"/>
                        </g>
                        <g transform="matrix(0.662425,0,0,0.662425,11202.273825,6907.765455)">
                            <circle cx="736.46" cy="647.45" r="15.41" style="fill:white;"/>
                        </g>
                        <g transform="matrix(0.662425,0,0,0.662425,11202.273825,6907.765455)">
                            <circle cx="198.05" cy="653.54" r="6.97" style="fill:white;"/>
                        </g>
                        <g transform="matrix(0.662425,0,0,0.662425,11202.273825,6907.765455)">
                            <circle cx="586.16" cy="669.7" r="14.65" style="fill:white;"/>
                        </g>
                        <g transform="matrix(0.662425,0,0,0.662425,11202.273825,6907.765455)">
                            <circle cx="866.91" cy="693.34" r="11.99" style="fill:white;"/>
                        </g>
                        <g transform="matrix(0.662425,0,0,0.662425,11202.273825,6907.765455)">
                            <circle cx="154.31" cy="692.98" r="3.48" style="fill:white;"/>
                        </g>
                        <g transform="matrix(0.662425,0,0,0.662425,11202.273825,6907.765455)">
                            <circle cx="249.4" cy="707.39" r="7.59" style="fill:white;"/>
                        </g>
                        <g transform="matrix(0.662425,0,0,0.662425,11202.273825,6907.765455)">
                            <circle cx="536.12" cy="716.15" r="13.94" style="fill:white;"/>
                        </g>
                        <g transform="matrix(0.662425,0,0,0.662425,11202.273825,6907.765455)">
                            <circle cx="685.82" cy="733.5" r="13.91" style="fill:white;"/>
                        </g>
                        <g transform="matrix(0.662425,0,0,0.662425,11202.273825,6907.765455)">
                            <circle cx="315.53" cy="743.17" r="8.58" style="fill:white;"/>
                        </g>
                        <g transform="matrix(0.662425,0,0,0.662425,11202.273825,6907.765455)">
                            <circle cx="467.45" cy="750.27" r="12.41" style="fill:white;"/>
                        </g>
                        <g transform="matrix(0.662425,0,0,0.662425,11202.273825,6907.765455)">
                            <circle cx="107.28" cy="747.3" r="1.8" style="fill:white;"/>
                        </g>
                        <g transform="matrix(0.662425,0,0,0.662425,11202.273825,6907.765455)">
                            <circle cx="391.9" cy="759.13" r="10.34" style="fill:white;"/>
                        </g>
                        <g transform="matrix(0.662425,0,0,0.662425,11202.273825,6907.765455)">
                            <circle cx="222.63" cy="775.48" r="4.89" style="fill:white;"/>
                        </g>
                        <g transform="matrix(0.662425,0,0,0.662425,11202.273825,6907.765455)">
                            <circle cx="608.61" cy="802.12" r="12.37" style="fill:white;"/>
                        </g>
                        <g transform="matrix(0.662425,0,0,0.662425,11202.273825,6907.765455)">
                            <circle cx="799.87" cy="806.41" r="9.7" style="fill:white;"/>
                        </g>
                        <g transform="matrix(0.662425,0,0,0.662425,11202.273825,6907.765455)">
                            <circle cx="306.42" cy="829.61" r="6.41" style="fill:white;"/>
                        </g>
                        <g transform="matrix(0.662425,0,0,0.662425,11202.273825,6907.765455)">
                            <circle cx="512.83" cy="846.51" r="9.53" style="fill:white;"/>
                        </g>
                        <g transform="matrix(0.662425,0,0,0.662425,11202.273825,6907.765455)">
                            <circle cx="406.73" cy="854.5" r="8.34" style="fill:white;"/>
                        </g>
                        <g transform="matrix(0.662425,0,0,0.662425,11202.273825,6907.765455)">
                            <circle cx="695.82" cy="899.06" r="8.27" style="fill:white;"/>
                        </g>
                        <g transform="matrix(0.662425,0,0,0.662425,11202.273825,6907.765455)">
                            <circle cx="569.7" cy="950.93" r="5.8" style="fill:white;"/>
                        </g>
                        <g transform="matrix(0.662425,0,0,0.662425,11202.273825,6907.765455)">
                            <circle cx="435.27" cy="957.64" r="3.89" style="fill:white;"/>
                        </g>
                        <g transform="matrix(0.662425,0,0,0.662425,11202.273825,6907.765455)">
                            <circle cx="380.75" cy="508.68" r="82.96" style="fill:rgb(61,125,242);"/>
                        </g>
                    </g>
                </g>
                <g transform="matrix(1.5488,0,0,1.019731,-16065.109994,20777.270785)">
                    <g transform="matrix(176.741534,0,0,176.741534,11078.986655,3372.589947)">
                        <path d="M0.349,-0.144C0.349,-0.155 0.346,-0.165 0.34,-0.174C0.334,-0.183 0.323,-0.191 0.307,-0.199C0.291,-0.206 0.267,-0.213 0.237,-0.219C0.209,-0.225 0.184,-0.232 0.161,-0.241C0.138,-0.25 0.118,-0.261 0.101,-0.273C0.084,-0.286 0.071,-0.301 0.062,-0.318C0.053,-0.335 0.048,-0.355 0.048,-0.377C0.048,-0.399 0.053,-0.419 0.063,-0.439C0.072,-0.458 0.086,-0.475 0.104,-0.49C0.122,-0.505 0.143,-0.517 0.169,-0.525C0.195,-0.534 0.223,-0.538 0.256,-0.538C0.301,-0.538 0.339,-0.531 0.372,-0.516C0.404,-0.501 0.429,-0.481 0.446,-0.456C0.464,-0.43 0.472,-0.402 0.472,-0.369L0.343,-0.369C0.343,-0.383 0.34,-0.396 0.334,-0.408C0.327,-0.419 0.318,-0.429 0.305,-0.436C0.292,-0.443 0.275,-0.446 0.255,-0.446C0.237,-0.446 0.222,-0.443 0.21,-0.437C0.198,-0.431 0.189,-0.424 0.182,-0.414C0.176,-0.405 0.173,-0.394 0.173,-0.383C0.173,-0.374 0.175,-0.367 0.178,-0.36C0.182,-0.353 0.187,-0.347 0.195,-0.342C0.203,-0.336 0.214,-0.331 0.227,-0.327C0.241,-0.322 0.257,-0.318 0.277,-0.314C0.317,-0.306 0.351,-0.295 0.38,-0.282C0.41,-0.269 0.433,-0.253 0.45,-0.231C0.466,-0.21 0.475,-0.183 0.475,-0.15C0.475,-0.127 0.47,-0.106 0.459,-0.086C0.449,-0.067 0.435,-0.05 0.415,-0.035C0.396,-0.021 0.373,-0.01 0.347,-0.002C0.32,0.006 0.29,0.01 0.257,0.01C0.208,0.01 0.167,0.001 0.133,-0.016C0.1,-0.034 0.074,-0.056 0.057,-0.083C0.04,-0.11 0.031,-0.138 0.031,-0.166L0.155,-0.166C0.156,-0.146 0.161,-0.13 0.171,-0.117C0.181,-0.105 0.194,-0.096 0.21,-0.091C0.225,-0.085 0.242,-0.083 0.259,-0.083C0.279,-0.083 0.295,-0.085 0.308,-0.091C0.321,-0.096 0.331,-0.103 0.338,-0.112C0.345,-0.122 0.349,-0.132 0.349,-0.144Z" style="fill:white;fill-rule:nonzero;"/>
                    </g>
                    <g transform="matrix(1.24,0,0,1,-2679.500987,0)">
                        <g transform="matrix(176.741534,0,0,176.741534,11164.587444,3372.589947)">
                            <path d="M0.205,-0.127L0.321,-0.528L0.403,-0.528L0.378,-0.39L0.262,-0L0.191,-0L0.205,-0.127ZM0.141,-0.528L0.228,-0.126L0.236,-0L0.154,-0L0.016,-0.528L0.141,-0.528ZM0.51,-0.132L0.595,-0.528L0.72,-0.528L0.582,-0L0.501,-0L0.51,-0.132ZM0.415,-0.528L0.53,-0.131L0.546,-0L0.474,-0L0.357,-0.39L0.333,-0.528L0.415,-0.528Z" style="fill:white;fill-rule:nonzero;"/>
                        </g>
                    </g>
                    <g transform="matrix(176.741534,0,0,176.741534,11319.796036,3372.589947)">
                        <path d="M0.295,0.01C0.255,0.01 0.22,0.003 0.188,-0.01C0.156,-0.023 0.129,-0.041 0.106,-0.064C0.084,-0.088 0.067,-0.115 0.055,-0.146C0.043,-0.177 0.037,-0.21 0.037,-0.246L0.037,-0.266C0.037,-0.306 0.043,-0.343 0.055,-0.377C0.066,-0.41 0.083,-0.439 0.104,-0.463C0.126,-0.487 0.152,-0.506 0.181,-0.519C0.211,-0.532 0.244,-0.538 0.281,-0.538C0.318,-0.538 0.351,-0.532 0.38,-0.519C0.409,-0.507 0.433,-0.489 0.452,-0.466C0.471,-0.443 0.485,-0.416 0.495,-0.385C0.505,-0.353 0.51,-0.318 0.51,-0.279L0.51,-0.225L0.096,-0.225L0.096,-0.314L0.383,-0.314L0.383,-0.324C0.382,-0.344 0.378,-0.363 0.371,-0.38C0.364,-0.397 0.353,-0.411 0.338,-0.421C0.323,-0.431 0.304,-0.436 0.28,-0.436C0.261,-0.436 0.244,-0.432 0.23,-0.424C0.216,-0.416 0.204,-0.404 0.195,-0.389C0.185,-0.374 0.178,-0.356 0.174,-0.335C0.169,-0.314 0.167,-0.291 0.167,-0.266L0.167,-0.246C0.167,-0.224 0.17,-0.203 0.176,-0.185C0.182,-0.166 0.191,-0.149 0.203,-0.136C0.215,-0.122 0.229,-0.111 0.246,-0.103C0.263,-0.096 0.282,-0.092 0.303,-0.092C0.33,-0.092 0.355,-0.097 0.377,-0.108C0.399,-0.118 0.418,-0.134 0.434,-0.155L0.499,-0.087C0.488,-0.071 0.473,-0.056 0.454,-0.041C0.436,-0.026 0.413,-0.014 0.387,-0.004C0.36,0.005 0.33,0.01 0.295,0.01Z" style="fill:white;fill-rule:nonzero;"/>
                    </g>
                    <g transform="matrix(176.741534,0,0,176.741534,11414.870022,3372.589947)">
                        <path d="M0.295,0.01C0.255,0.01 0.22,0.003 0.188,-0.01C0.156,-0.023 0.129,-0.041 0.106,-0.064C0.084,-0.088 0.067,-0.115 0.055,-0.146C0.043,-0.177 0.037,-0.21 0.037,-0.246L0.037,-0.266C0.037,-0.306 0.043,-0.343 0.055,-0.377C0.066,-0.41 0.083,-0.439 0.104,-0.463C0.126,-0.487 0.152,-0.506 0.181,-0.519C0.211,-0.532 0.244,-0.538 0.281,-0.538C0.318,-0.538 0.351,-0.532 0.38,-0.519C0.409,-0.507 0.433,-0.489 0.452,-0.466C0.471,-0.443 0.485,-0.416 0.495,-0.385C0.505,-0.353 0.51,-0.318 0.51,-0.279L0.51,-0.225L0.096,-0.225L0.096,-0.314L0.383,-0.314L0.383,-0.324C0.382,-0.344 0.378,-0.363 0.371,-0.38C0.364,-0.397 0.353,-0.411 0.338,-0.421C0.323,-0.431 0.304,-0.436 0.28,-0.436C0.261,-0.436 0.244,-0.432 0.23,-0.424C0.216,-0.416 0.204,-0.404 0.195,-0.389C0.185,-0.374 0.178,-0.356 0.174,-0.335C0.169,-0.314 0.167,-0.291 0.167,-0.266L0.167,-0.246C0.167,-0.224 0.17,-0.203 0.176,-0.185C0.182,-0.166 0.191,-0.149 0.203,-0.136C0.215,-0.122 0.229,-0.111 0.246,-0.103C0.263,-0.096 0.282,-0.092 0.303,-0.092C0.33,-0.092 0.355,-0.097 0.377,-0.108C0.399,-0.118 0.418,-0.134 0.434,-0.155L0.499,-0.087C0.488,-0.071 0.473,-0.056 0.454,-0.041C0.436,-0.026 0.413,-0.014 0.387,-0.004C0.36,0.005 0.33,0.01 0.295,0.01Z" style="fill:white;fill-rule:nonzero;"/>
                    </g>
                    <g transform="matrix(176.741534,0,0,176.741534,11508.176592,3372.589947)">
                        <path d="M0.308,-0.528L0.308,-0.436L0.005,-0.436L0.005,-0.528L0.308,-0.528ZM0.087,-0.658L0.216,-0.658L0.216,-0.153C0.216,-0.137 0.218,-0.125 0.222,-0.116C0.226,-0.108 0.233,-0.102 0.241,-0.099C0.25,-0.096 0.26,-0.095 0.271,-0.095C0.28,-0.095 0.288,-0.095 0.295,-0.096C0.302,-0.097 0.308,-0.098 0.313,-0.099L0.313,-0.002C0.303,0.001 0.291,0.004 0.277,0.006C0.264,0.009 0.248,0.01 0.232,0.01C0.203,0.01 0.177,0.005 0.155,-0.005C0.134,-0.015 0.117,-0.031 0.105,-0.054C0.093,-0.076 0.087,-0.105 0.087,-0.142L0.087,-0.658Z" style="fill:white;fill-rule:nonzero;"/>
                    </g>
                    <g transform="matrix(176.741534,0,0,176.741534,11567.530306,3372.589947)">
                    </g>
                    <g transform="matrix(162.602211,0,0,162.602211,11078.986655,3503.378682)">
                        <path d="M0.308,-0.528L0.308,-0.436L0.005,-0.436L0.005,-0.528L0.308,-0.528ZM0.087,-0.658L0.216,-0.658L0.216,-0.153C0.216,-0.137 0.218,-0.125 0.222,-0.116C0.226,-0.108 0.233,-0.102 0.241,-0.099C0.25,-0.096 0.26,-0.095 0.271,-0.095C0.28,-0.095 0.288,-0.095 0.295,-0.096C0.302,-0.097 0.308,-0.098 0.313,-0.099L0.313,-0.002C0.303,0.001 0.291,0.004 0.277,0.006C0.264,0.009 0.248,0.01 0.232,0.01C0.203,0.01 0.177,0.005 0.155,-0.005C0.134,-0.015 0.117,-0.031 0.105,-0.054C0.093,-0.076 0.087,-0.105 0.087,-0.142L0.087,-0.658Z" style="fill:white;fill-rule:nonzero;"/>
                    </g>
                    <g transform="matrix(162.602211,0,0,162.602211,11133.592071,3503.378682)">
                        <path d="M0.295,0.01C0.255,0.01 0.22,0.003 0.188,-0.01C0.156,-0.023 0.129,-0.041 0.106,-0.064C0.084,-0.088 0.067,-0.115 0.055,-0.146C0.043,-0.177 0.037,-0.21 0.037,-0.246L0.037,-0.266C0.037,-0.306 0.043,-0.343 0.055,-0.377C0.066,-0.41 0.083,-0.439 0.104,-0.463C0.126,-0.487 0.152,-0.506 0.181,-0.519C0.211,-0.532 0.244,-0.538 0.281,-0.538C0.318,-0.538 0.351,-0.532 0.38,-0.519C0.409,-0.507 0.433,-0.489 0.452,-0.466C0.471,-0.443 0.485,-0.416 0.495,-0.385C0.505,-0.353 0.51,-0.318 0.51,-0.279L0.51,-0.225L0.096,-0.225L0.096,-0.314L0.383,-0.314L0.383,-0.324C0.382,-0.344 0.378,-0.363 0.371,-0.38C0.364,-0.397 0.353,-0.411 0.338,-0.421C0.323,-0.431 0.304,-0.436 0.28,-0.436C0.261,-0.436 0.244,-0.432 0.23,-0.424C0.216,-0.416 0.204,-0.404 0.195,-0.389C0.185,-0.374 0.178,-0.356 0.174,-0.335C0.169,-0.314 0.167,-0.291 0.167,-0.266L0.167,-0.246C0.167,-0.224 0.17,-0.203 0.176,-0.185C0.182,-0.166 0.191,-0.149 0.203,-0.136C0.215,-0.122 0.229,-0.111 0.246,-0.103C0.263,-0.096 0.282,-0.092 0.303,-0.092C0.33,-0.092 0.355,-0.097 0.377,-0.108C0.399,-0.118 0.418,-0.134 0.434,-0.155L0.499,-0.087C0.488,-0.071 0.473,-0.056 0.454,-0.041C0.436,-0.026 0.413,-0.014 0.387,-0.004C0.36,0.005 0.33,0.01 0.295,0.01Z" style="fill:white;fill-rule:nonzero;"/>
                    </g>
                    <g transform="matrix(162.602211,0,0,162.602211,11221.060138,3503.378682)">
                        <path d="M0.275,-0.092C0.293,-0.092 0.309,-0.096 0.324,-0.103C0.338,-0.11 0.35,-0.12 0.358,-0.133C0.367,-0.146 0.371,-0.161 0.372,-0.178L0.494,-0.178C0.493,-0.143 0.483,-0.111 0.464,-0.082C0.444,-0.054 0.418,-0.031 0.385,-0.015C0.353,0.002 0.317,0.01 0.277,0.01C0.236,0.01 0.201,0.003 0.171,-0.011C0.14,-0.025 0.115,-0.044 0.095,-0.068C0.075,-0.092 0.06,-0.121 0.05,-0.153C0.04,-0.185 0.035,-0.219 0.035,-0.256L0.035,-0.272C0.035,-0.309 0.04,-0.343 0.05,-0.375C0.06,-0.408 0.075,-0.436 0.095,-0.46C0.115,-0.485 0.14,-0.504 0.17,-0.517C0.201,-0.531 0.236,-0.538 0.276,-0.538C0.319,-0.538 0.356,-0.53 0.389,-0.513C0.421,-0.496 0.447,-0.473 0.465,-0.443C0.484,-0.412 0.493,-0.377 0.494,-0.336L0.372,-0.336C0.371,-0.355 0.367,-0.372 0.359,-0.387C0.352,-0.402 0.34,-0.414 0.326,-0.423C0.312,-0.432 0.294,-0.436 0.274,-0.436C0.252,-0.436 0.234,-0.432 0.219,-0.423C0.205,-0.414 0.194,-0.401 0.186,-0.385C0.178,-0.37 0.172,-0.352 0.169,-0.333C0.166,-0.313 0.164,-0.293 0.164,-0.272L0.164,-0.256C0.164,-0.235 0.166,-0.215 0.169,-0.195C0.172,-0.175 0.178,-0.158 0.186,-0.142C0.194,-0.127 0.205,-0.115 0.22,-0.106C0.234,-0.097 0.252,-0.092 0.275,-0.092Z" style="fill:white;fill-rule:nonzero;"/>
                    </g>
                    <g transform="matrix(162.602211,0,0,162.602211,11305.881865,3503.378682)">
                        <path d="M0.184,-0.75L0.184,-0L0.055,-0L0.055,-0.75L0.184,-0.75ZM0.164,-0.283L0.126,-0.283C0.126,-0.32 0.131,-0.354 0.141,-0.385C0.15,-0.416 0.164,-0.443 0.182,-0.466C0.2,-0.489 0.221,-0.507 0.246,-0.519C0.271,-0.532 0.299,-0.538 0.329,-0.538C0.355,-0.538 0.379,-0.534 0.4,-0.527C0.421,-0.52 0.44,-0.508 0.455,-0.492C0.47,-0.476 0.482,-0.456 0.49,-0.43C0.499,-0.405 0.503,-0.373 0.503,-0.337L0.503,-0L0.373,-0L0.373,-0.338C0.373,-0.362 0.369,-0.381 0.362,-0.396C0.355,-0.41 0.345,-0.42 0.332,-0.426C0.319,-0.432 0.302,-0.435 0.283,-0.435C0.262,-0.435 0.245,-0.431 0.229,-0.424C0.214,-0.416 0.202,-0.405 0.192,-0.391C0.183,-0.377 0.176,-0.361 0.171,-0.342C0.166,-0.324 0.164,-0.304 0.164,-0.283Z" style="fill:white;fill-rule:nonzero;"/>
                    </g>
                    <g transform="matrix(162.602211,0,0,162.602211,11470.194965,3499.843851)">
                    </g>
                    <text x="11403.106px" y="3499.844px" style="font-family:'Roboto-Thin', 'Roboto';font-weight:250;font-size:162.602px;fill:white;">_</text>
                </g>
            </g>
        </g>
    </g>
</svg>
